<svg id="Layer_1" data-name="Layer 1" xmlns="http://www.w3.org/2000/svg" viewBox="0 0 1277 291"><defs><style>.cls-1{fill:#dbdbdb;}</style></defs><title>edulab grey</title><path class="cls-1" d="M27.22,94.43l57.53-24.3a11.59,11.59,0,0,1,15.55,7.12h0a11.6,11.6,0,0,1-6.82,14.36L73.1,99.56a11.6,11.6,0,0,0,0,21.61l20.38,8a11.6,11.6,0,0,1,6.82,14.36h0a11.59,11.59,0,0,1-15.55,7.12L27.22,126.29a17.3,17.3,0,0,1-10.56-15.93h0A17.29,17.29,0,0,1,27.22,94.43Z"/><path class="cls-1" d="M125.17,193.42h-3a12,12,0,0,1-11.29-15.88l54-155.64a12,12,0,0,1,11.29-8h2.71a12,12,0,0,1,11.31,15.85L136.47,185.36A12,12,0,0,1,125.17,193.42Z"/><path class="cls-1" d="M184.52,120.15a68.42,68.42,0,0,1,4.08-23.74,58.51,58.51,0,0,1,11.68-19.48,54.74,54.74,0,0,1,18.46-13.17,59,59,0,0,1,24.2-4.82,64.5,64.5,0,0,1,14.94,1.58c1.28.3,2.54.64,3.76,1a7.89,7.89,0,0,1,4.86,10.74l-3.16,7.2a7.92,7.92,0,0,1-9.62,4.37l-1-.32a33.78,33.78,0,0,0-9.74-1.21q-13.91,0-21.88,9.37t-8,25.5q0,9.46,4.08,15.3t15,5.85a47.24,47.24,0,0,0,10.38-1.12l.1,0a8,8,0,0,1,9.71,7l.57,6.17a7.92,7.92,0,0,1-5.57,8.3q-2.53.8-5.27,1.48A62.42,62.42,0,0,1,227,161.7q-11.51,0-19.47-3.34a36.82,36.82,0,0,1-13.17-9,33.8,33.8,0,0,1-7.51-13.26A54.27,54.27,0,0,1,184.52,120.15Z"/><path class="cls-1" d="M307.49,161.7a44.75,44.75,0,0,1-17.06-3,31.57,31.57,0,0,1-12-8.35,36,36,0,0,1-7.15-12.7,52,52,0,0,1-2.41-16.23,71.71,71.71,0,0,1,3.62-22.26,63.39,63.39,0,0,1,10.67-20A56.7,56.7,0,0,1,300.45,64.6a47.36,47.36,0,0,1,23.37-5.66,45,45,0,0,1,17,3,31.53,31.53,0,0,1,12,8.34A36.1,36.1,0,0,1,360,83a51.92,51.92,0,0,1,2.41,16.23,73.38,73.38,0,0,1-3.53,22.26,64.46,64.46,0,0,1-10.38,20A54.65,54.65,0,0,1,331.33,156Q321,161.7,307.49,161.7Zm13.73-79.39a17.35,17.35,0,0,0-10.76,3.52,30.18,30.18,0,0,0-7.79,8.91,44,44,0,0,0-4.73,11.78,50.81,50.81,0,0,0-1.58,12.14q0,9.47,3,14.57t10.76,5.1a17.29,17.29,0,0,0,10.76-3.53,30.29,30.29,0,0,0,7.79-8.9,44,44,0,0,0,4.73-11.78A50.89,50.89,0,0,0,335,102c0-6.31-1-11.16-3-14.56S326.41,82.31,321.22,82.31Z"/><path class="cls-1" d="M410.07,161.7a36.29,36.29,0,0,1-15.86-3.16,28.92,28.92,0,0,1-10.76-8.62,36.21,36.21,0,0,1-6.12-12.8,60.71,60.71,0,0,1-1.95-15.67,62.93,62.93,0,0,1,4.54-23.84A61.53,61.53,0,0,1,392.44,78a58.38,58.38,0,0,1,42.85-18,49.86,49.86,0,0,1,6.21.37c1.34.18,2.68.41,4,.7a1.91,1.91,0,0,0,2.25-1.42l7.46-31.25a13.53,13.53,0,0,1,11.09-10.22h0a13.42,13.42,0,0,1,15.1,16.39L461.63,117a61.37,61.37,0,0,0-1.48,21.23c.29,2.85.7,5.57,1.21,8.17a10.67,10.67,0,0,1-9,12.57l-11.22,1.6a1.9,1.9,0,0,1-2-1c-.51-1-1-2.05-1.43-3-.31-.69-.63-1.43-.95-2.22a1.9,1.9,0,0,0-2.91-.85,49.86,49.86,0,0,1-9.59,5.49A35.24,35.24,0,0,1,410.07,161.7ZM441.5,85.56A1.92,1.92,0,0,0,440,83.24h0a16.16,16.16,0,0,0-1.67-.28,20.65,20.65,0,0,0-2.13-.09h-3.34a24.63,24.63,0,0,0-12.06,3.06,30.48,30.48,0,0,0-9.55,8.25A40.27,40.27,0,0,0,405.06,106a41.56,41.56,0,0,0-2.23,13.45q0,8.9,3.06,14t11,5.1a17.88,17.88,0,0,0,7.79-1.67,26.6,26.6,0,0,0,6.91-5.06,1.91,1.91,0,0,0,.57-1.2q.38-4.32,1.14-9,.84-5.1,1.77-9.37Z"/><path class="cls-1" d="M484.81,120.89a65.06,65.06,0,0,1,4.18-23,62.8,62.8,0,0,1,11.78-19.75,58.33,58.33,0,0,1,18.45-13.91,54,54,0,0,1,24-5.29,38.11,38.11,0,0,1,12.06,1.85A29.57,29.57,0,0,1,565,66.17a24.38,24.38,0,0,1,6.49,8.63,27.79,27.79,0,0,1,2.32,11.59q0,10.39-4.64,17.62a35,35,0,0,1-12.89,11.78,63.62,63.62,0,0,1-19.57,6.58,138.33,138.33,0,0,1-24.67,2q1.29,7.8,5.66,11t13.82,3.25a73.24,73.24,0,0,0,12.05-1l.13,0a10.83,10.83,0,0,1,12.57,9.67h0a11.07,11.07,0,0,1-8.4,11.8q-1.9.47-4,.9a86.75,86.75,0,0,1-17.53,1.67q-11.5,0-19.38-3.25A32.93,32.93,0,0,1,487,136.66,54.74,54.74,0,0,1,484.81,120.89Zm54-40.06a23.35,23.35,0,0,0-16.6,6.77q-7.14,6.77-9.37,17.9a103.66,103.66,0,0,0,18.55-2,40.32,40.32,0,0,0,10.94-3.8c2.6-1.49,4.33-3.09,5.2-4.83a11.59,11.59,0,0,0,1.3-5.19Q548.81,80.82,538.79,80.83Z"/><path class="cls-1" d="M666.78,126.29,609.25,150.6a11.59,11.59,0,0,1-15.55-7.12h0a11.6,11.6,0,0,1,6.82-14.36l20.38-8a11.6,11.6,0,0,0,0-21.61l-20.38-7.94a11.6,11.6,0,0,1-6.82-14.36h0a11.59,11.59,0,0,1,15.55-7.12l57.53,24.3a17.29,17.29,0,0,1,10.56,15.93h0A17.3,17.3,0,0,1,666.78,126.29Z"/><path class="cls-1" d="M480.39,187.18c-1.53-.11-2.43-3-1.05-3.48a13.18,13.18,0,0,0-2.34-3.52c-1,1.1-3.38-.85-2.85-2.32a12.42,12.42,0,0,0-4.13-1.58c.14.93-.56,1.46-1.43,1.47a2.94,2.94,0,0,1-2.55-1.54A11.28,11.28,0,0,0,461.4,178a1.88,1.88,0,0,1,.45,2.78,3.32,3.32,0,0,1-3.66.6,12,12,0,0,0-1.75,5.78c1.4-.08,3,.55,3.23,2a3.38,3.38,0,0,1-2.26,3.48,13.4,13.4,0,0,0,4,5.36c.89-1.05,2.52-1.82,3.84-1.09a2.9,2.9,0,0,1,1,3.56,11.62,11.62,0,0,0,5.74.07,3.16,3.16,0,0,1,1.62-3.05,1.84,1.84,0,0,1,2.39,1.17,11.14,11.14,0,0,0,3.09-3.6,2.87,2.87,0,0,1-.51-2.79,1.28,1.28,0,0,1,1.8-.84A13.11,13.11,0,0,0,480.39,187.18Zm-7.39,8.2c-4.87,1.81-9.89-2-10.86-6.8-.91-4.5,1.9-9.09,6.84-9.28a8.68,8.68,0,0,1,8.46,6.41C478.53,189.5,477,193.93,473,195.38Z"/><path class="cls-1" d="M437.78,248.31a44.87,44.87,0,0,1-3.66,10.43,24.37,24.37,0,0,1-5.66,7.33,22,22,0,0,1-8.12,4.36,38,38,0,0,1-11,1.44,38.61,38.61,0,0,1-9.83-1.07l-1-.28a6,6,0,0,1-3.83-8h0a5.93,5.93,0,0,1,7.26-3.34l.95.3a27,27,0,0,0,7.65.93q5.94,0,8.95-2.65a12.3,12.3,0,0,0,3.94-6.81l.37-1.77a20.42,20.42,0,0,1-3.94,1.49,17.06,17.06,0,0,1-4.4.55,19,19,0,0,1-7.51-1.34,13.3,13.3,0,0,1-5.15-3.76,15.8,15.8,0,0,1-3-5.7,25.21,25.21,0,0,1-1-7.19,28.57,28.57,0,0,1,2.59-12.47,26.61,26.61,0,0,1,6.91-9,29.77,29.77,0,0,1,9.93-5.48A37.31,37.31,0,0,1,430,204.35a42.12,42.12,0,0,1,8.81.93l.09,0A8.79,8.79,0,0,1,445.48,216Zm-7-28.49a3.14,3.14,0,0,0-3-3.88h-.05a15.24,15.24,0,0,0-6.3,1.25,14.83,14.83,0,0,0-4.78,3.39,14.48,14.48,0,0,0-3.06,5.15,19.21,19.21,0,0,0-1.07,6.44,16.8,16.8,0,0,0,.28,3.11,6.59,6.59,0,0,0,1,2.5,5.31,5.31,0,0,0,2,1.72,7.29,7.29,0,0,0,3.25.65,17.82,17.82,0,0,0,3.48-.47,7.73,7.73,0,0,0,3-1.34,3.08,3.08,0,0,0,1.19-1.81Z"/><path class="cls-1" d="M457.37,254.43h-1.71a5.85,5.85,0,0,1-5.69-7.2l8.81-37.08a5.85,5.85,0,0,1,5.69-4.5h1.78a5.85,5.85,0,0,1,5.69,7.21l-8.88,37.08A5.85,5.85,0,0,1,457.37,254.43Z"/><path class="cls-1" d="M516.87,205.65a6.68,6.68,0,0,1,6.17,9.23c-.55,1.35-1.1,2.66-1.66,3.94q-2.64,6.12-5.52,11.64T509.93,241q-3.06,5-6.49,9.93-2.51,3.61-5.2,7.32a42.05,42.05,0,0,1-6,6.68,28.58,28.58,0,0,1-7.32,4.82A24.8,24.8,0,0,1,470.05,271l-.48-.13a3.82,3.82,0,0,1-2.51-5.05l1.46-3.78a3.88,3.88,0,0,1,4.68-2.35h0a13.48,13.48,0,0,0,3.62.42A10.47,10.47,0,0,0,483,258a16.62,16.62,0,0,0,4.87-5.61q-2.42-9.27-4.41-20.77-1.45-8.42-2.25-18.42a7,7,0,0,1,7-7.55h0a7,7,0,0,1,7,6.58l.09,1.39q.27,4.37.65,8.77c.24,2.94.52,5.79.83,8.58s.65,5.28,1,7.51a86.28,86.28,0,0,0,7.84-14.84q2.56-6.19,4.9-13.36a6.68,6.68,0,0,1,6.35-4.63Z"/><path class="cls-1" d="M569.56,233.38a31,31,0,0,0-.74,10.62c.12,1.14.27,2.24.46,3.3a6.14,6.14,0,0,1-5.14,7.18l-5.52.79c-.37-.75-.71-1.46-1-2.14s-.62-1.45-.93-2.32a24.6,24.6,0,0,1-5.75,3.53,17.23,17.23,0,0,1-7,1.39,17.83,17.83,0,0,1-7.93-1.62,15.21,15.21,0,0,1-5.38-4.36,17.6,17.6,0,0,1-3-6.4,33.22,33.22,0,0,1,1.35-19.9,30.52,30.52,0,0,1,6.3-9.87,29.22,29.22,0,0,1,21.38-9c.56,0,1.53,0,2.92.09s3,.2,4.78.42a45.87,45.87,0,0,1,5.65,1.06l.06,0a6.07,6.07,0,0,1,4.34,7.31Zm-9.64-17.07c-.81-.12-1.53-.21-2.18-.28s-1.44-.09-2.37-.09a11.64,11.64,0,0,0-5.89,1.58,16.89,16.89,0,0,0-4.77,4.13,19.55,19.55,0,0,0-3.2,5.89,20.82,20.82,0,0,0-1.16,7,14.21,14.21,0,0,0,1.48,7c1,1.73,2.82,2.6,5.47,2.6a8.61,8.61,0,0,0,3.85-.84,13.9,13.9,0,0,0,3.67-2.78c.12-1.55.32-3.17.6-4.87s.57-3.26.88-4.68Z"/><path class="cls-1" d="M707.44,163.1A53.33,53.33,0,0,1,711,142.78a43.64,43.64,0,0,1,9.37-14.51,39,39,0,0,1,13.35-8.79,41.8,41.8,0,0,1,15.51-3q18.57,0,29.36,11.36t10.78,33.41c0,1.44-.06,3-.17,4.73s-.22,3.24-.33,4.56H732.81a16.42,16.42,0,0,0,7.13,12.11q6.3,4.47,16.92,4.48a71.39,71.39,0,0,0,13.35-1.25,50.94,50.94,0,0,0,10.7-3.06l3.31,20.06a32.82,32.82,0,0,1-5.3,2,68.78,68.78,0,0,1-7.38,1.75c-2.71.49-5.62.91-8.71,1.24a87.62,87.62,0,0,1-9.29.5,54.78,54.78,0,0,1-20.48-3.49,39.94,39.94,0,0,1-14.43-9.53A38,38,0,0,1,710.17,181,57,57,0,0,1,707.44,163.1Zm58-9.45a25.91,25.91,0,0,0-1.07-6.14,15.41,15.41,0,0,0-2.82-5.31,15.19,15.19,0,0,0-4.81-3.81,15.63,15.63,0,0,0-7.22-1.49,16.58,16.58,0,0,0-7.13,1.41,14.76,14.76,0,0,0-5,3.73,16.61,16.61,0,0,0-3.06,5.39,35,35,0,0,0-1.58,6.22Z"/><path class="cls-1" d="M885.39,203.24c-2.21.66-4.75,1.3-7.63,1.9s-5.88,1.14-9,1.58-6.36.8-9.62,1.08-6.38.41-9.37.41a54.81,54.81,0,0,1-19.23-3.15,38.6,38.6,0,0,1-14.27-9,39.12,39.12,0,0,1-8.87-14.26,54.33,54.33,0,0,1-3.07-18.83A64,64,0,0,1,807,143.78a41.58,41.58,0,0,1,7.62-14.51,32.67,32.67,0,0,1,12.19-9.12A40.89,40.89,0,0,1,843.27,117a39,39,0,0,1,9.2,1,49,49,0,0,1,8.21,2.82V81.34l24.71-4ZM829.5,161.77q0,11.44,5.14,18.41t15.26,7q3.32,0,6.14-.25c1.88-.17,3.42-.36,4.64-.58V141.37a21.63,21.63,0,0,0-6-2.48,29,29,0,0,0-7.55-1Q829.5,137.89,829.5,161.77Z"/><path class="cls-1" d="M983.07,203.07a136.5,136.5,0,0,1-16.25,3.4,133.6,133.6,0,0,1-20.9,1.57q-11.11,0-18.49-3a28,28,0,0,1-11.69-8.38,32.61,32.61,0,0,1-6.14-12.85,69.44,69.44,0,0,1-1.82-16.42V118.82h24.71v45.61q0,11.94,3.15,17.24T947.42,187c1.76,0,3.65-.08,5.64-.25s3.75-.35,5.3-.58V118.82h24.71Z"/><path class="cls-1" d="M1041.12,207.71q-10.78-.17-17.5-2.32a25.9,25.9,0,0,1-10.61-6,20.08,20.08,0,0,1-5.31-9.46,50.93,50.93,0,0,1-1.41-12.52v-96l24.71-4v95a32.71,32.71,0,0,0,.5,6,10.31,10.31,0,0,0,1.91,4.48,10.12,10.12,0,0,0,4.06,3,22.11,22.11,0,0,0,7.13,1.49Z"/><path class="cls-1" d="M1092.53,116.5q11,0,18.25,2.48a28.43,28.43,0,0,1,11.69,7.13,26.3,26.3,0,0,1,6.22,11.28,56,56,0,0,1,1.82,14.76v51.42q-5.31,1.16-14.76,2.73a141.81,141.81,0,0,1-22.89,1.58,72.9,72.9,0,0,1-15.34-1.49,33.35,33.35,0,0,1-11.86-4.9,22.29,22.29,0,0,1-7.62-8.87,30.62,30.62,0,0,1-2.66-13.43,25.42,25.42,0,0,1,3.07-12.94,23.53,23.53,0,0,1,8.21-8.46,37.1,37.1,0,0,1,11.78-4.56,66,66,0,0,1,13.76-1.41,77.12,77.12,0,0,1,8.54.42,37.76,37.76,0,0,1,6.06,1.07V151a13.67,13.67,0,0,0-3.82-10.11q-3.81-3.82-13.27-3.82a85.63,85.63,0,0,0-12.44.91,53.77,53.77,0,0,0-10.61,2.57l-3.15-19.9q2.15-.66,5.39-1.41c2.15-.49,4.5-.94,7-1.32s5.22-.72,8-1S1089.66,116.5,1092.53,116.5Zm2,72.31q3.64,0,7-.17a46.29,46.29,0,0,0,5.31-.5V169.4c-1-.22-2.49-.44-4.48-.66a49.16,49.16,0,0,0-12,.08,17.38,17.38,0,0,0-5.39,1.58,9.22,9.22,0,0,0-3.65,3.15,8.78,8.78,0,0,0-1.32,5q0,5.8,3.9,8T1094.52,188.81Z"/><path class="cls-1" d="M1234,162.44a55,55,0,0,1-3.07,18.9,40,40,0,0,1-8.87,14.43A39.12,39.12,0,0,1,1207.8,205a53.75,53.75,0,0,1-19.24,3.23q-4.49,0-9.37-.41c-3.27-.28-6.47-.64-9.62-1.08s-6.17-1-9-1.58-5.42-1.24-7.63-1.9V81.34l24.71-4v43.45a45.62,45.62,0,0,1,8.63-2.82,44.45,44.45,0,0,1,9.62-1,39.27,39.27,0,0,1,16.41,3.24,32.1,32.1,0,0,1,12,9.2,41.51,41.51,0,0,1,7.29,14.35A65.32,65.32,0,0,1,1234,162.44Zm-25.21-.67q0-23.88-17.58-23.88a29,29,0,0,0-7.55,1,21.63,21.63,0,0,0-6.05,2.48v44.95c1.22.22,2.76.41,4.65.58s3.92.25,6.13.25q10.11,0,15.26-7T1208.79,161.77Z"/></svg>